SplineFontDB: 3.2
FontName: essiah
FullName: essiah
FamilyName: essiah
Weight: Regular
Copyright: Copyright (c) 2024, Michael Chapman
UComments: "2024-11-22: Created with FontForge (http://fontforge.org)"
Version: 001.000
DefaultBaseFilename: essiah
ItalicAngle: 0
UnderlinePosition: 0
UnderlineWidth: 0
Ascent: 512
Descent: 512
InvalidEm: 0
LayerCount: 2
Layer: 0 0 "Back" 1
Layer: 1 0 "Fore" 0
XUID: [1021 96 -335474456 15605780]
StyleMap: 0x0040
FSType: 0
OS2Version: 4
OS2_WeightWidthSlopeOnly: 0
OS2_UseTypoMetrics: 1
CreationTime: 1732266389
ModificationTime: 1733543729
PfmFamily: 33
TTFWeight: 400
TTFWidth: 5
LineGap: 0
VLineGap: 0
Panose: 2 0 6 3 0 0 0 0 0 0
OS2TypoAscent: 512
OS2TypoAOffset: 0
OS2TypoDescent: -512
OS2TypoDOffset: 0
OS2TypoLinegap: 0
OS2WinAscent: 512
OS2WinAOffset: 0
OS2WinDescent: -512
OS2WinDOffset: 0
HheadAscent: 512
HheadAOffset: 0
HheadDescent: -512
HheadDOffset: 0
OS2SubXSize: 256
OS2SubYSize: 256
OS2SubXOff: 0
OS2SubYOff: 128
OS2SupXSize: 256
OS2SupYSize: 256
OS2SupXOff: 0
OS2SupYOff: 768
OS2StrikeYSize: 64
OS2StrikeYPos: 0
OS2CapHeight: 448
OS2XHeight: 448
OS2Vendor: 'PfEd'
OS2CodePages: 00000001.00000000
OS2UnicodeRanges: 00000003.00000000.00000000.00000000
MarkAttachClasses: 1
DEI: 91125
LangName: 1033
Encoding: ISO8859-1
UnicodeInterp: none
NameList: AGL For New Fonts
DisplaySize: -48
AntiAlias: 1
FitToEm: 0
WinInfo: 0 16 11
BeginPrivate: 0
EndPrivate
Grid
256 0 m 4
 256 -141 371 -256 512 -256 c 4
 653 -256 768 -141 768 0 c 4
 768 141 653 256 512 256 c 4
 371 256 256 141 256 0 c 4
128 0 m 4
 128 212 300 384 512 384 c 4
 724 384 896 212 896 0 c 4
 896 -212 724 -384 512 -384 c 4
 300 -384 128 -212 128 0 c 4
1024 -512 m 1
 0 512 l 1025
0 -512 m 1
 1024 512 l 1025
0 -64 m 25
 1024 -64 l 1049
0 64 m 25
 1024 64 l 1049
448 -512 m 25
 448 512 l 1049
576 -512 m 25
 576 512 l 1049
768 -512 m 25
 768 512 l 1049
256 -512 m 25
 256 512 l 1049
0 -256 m 25
 1024 -256 l 1049
0 256 m 25
 1024 256 l 1049
0 0 m 25
 1024 0 l 1049
512 -512 m 25

StartChar: less
Encoding: 60 60 0
Width: 1024
VWidth: 1689
Flags: HW
LayerCount: 2
Fore
SplineSet
576 384 m 1
 576 256 l 1
 384 0 l 1
 576 -256 l 1
 576 -384 l 1
 256 0 l 1
 576 384 l 1
768 384 m 5
 768 256 l 5
 576 0 l 5
 768 -256 l 5
 768 -384 l 5
 448 0 l 5
 768 384 l 5
EndSplineSet
Validated: 1
EndChar

StartChar: greater
Encoding: 62 62 1
Width: 1024
VWidth: 1689
Flags: HW
LayerCount: 2
Fore
SplineSet
448 384 m 1
 768 0 l 1
 448 -384 l 1
 448 -256 l 1
 640 0 l 1
 448 256 l 1
 448 384 l 1
256 384 m 1
 576 0 l 1
 256 -384 l 1
 256 -256 l 1
 448 0 l 1
 256 256 l 1
 256 384 l 1
EndSplineSet
Validated: 1
EndChar

StartChar: period
Encoding: 46 46 2
Width: 1024
VWidth: 1689
Flags: HW
LayerCount: 2
Fore
SplineSet
448 384 m 1
 576 384 l 1
 576 -384 l 1
 448 -384 l 1
 448 384 l 1
EndSplineSet
Validated: 1
EndChar

StartChar: a
Encoding: 97 97 4
Width: 1024
VWidth: 1689
Flags: HW
LayerCount: 2
Fore
SplineSet
768 -384 m 5
 768 0 l 6
 768 71 743 131 693 181 c 4
 643 231 583 256 512 256 c 4
 441 256 381 231 331 181 c 4
 281 131 256 71 256 0 c 6
 256 -384 l 5
 128 -384 l 5
 128 0 l 6
 128 105 165 197 240 272 c 4
 315 347 406 384 512 384 c 4
 618 384 709 347 784 272 c 4
 859 197 896 106 896 0 c 6
 896 -384 l 5
 768 -384 l 5
EndSplineSet
Validated: 1
EndChar

StartChar: b
Encoding: 98 98 5
Width: 1024
VWidth: 1689
Flags: HW
LayerCount: 2
Fore
SplineSet
128 -384 m 5
 128 -256 l 5
 768 -256 l 5
 768 0 l 6
 768 71 743 131 693 181 c 4
 643 231 583 256 512 256 c 4
 441 256 381 231 331 181 c 4
 281 131 256 71 256 0 c 6
 256 -64 l 5
 128 -64 l 5
 128 0 l 6
 128 106 165 197 240 272 c 4
 315 347 406 384 512 384 c 4
 618 384 709 347 784 272 c 4
 859 197 896 106 896 0 c 6
 896 -384 l 5
 128 -384 l 5
EndSplineSet
Validated: 1
EndChar

StartChar: d
Encoding: 100 100 6
Width: 1024
VWidth: 1689
Flags: HW
LayerCount: 2
Fore
SplineSet
128 384 m 5
 256 384 l 5
 256 -256 l 5
 512 -256 l 6
 583 -256 643 -231 693 -181 c 4
 743 -131 768 -71 768 -0 c 4
 768 71 743 131 693 181 c 4
 643 231 583 256 512 256 c 6
 448 256 l 5
 448 384 l 5
 512 384 l 6
 618 384 709 347 784 272 c 4
 859 197 896 106 896 -0 c 4
 896 -106 859 -197 784 -272 c 4
 709 -347 618 -384 512 -384 c 6
 128 -384 l 5
 128 384 l 5
EndSplineSet
Validated: 1
EndChar

StartChar: e
Encoding: 101 101 7
Width: 1024
VWidth: 1689
Flags: HW
LayerCount: 2
Fore
SplineSet
896 256 m 5
 512 256 l 6
 441 256 381 231 331 181 c 4
 281 131 256 71 256 0 c 4
 256 -71 281 -131 331 -181 c 4
 381 -231 441 -256 512 -256 c 6
 896 -256 l 5
 896 -384 l 5
 512 -384 l 6
 407 -384 315 -347 240 -272 c 4
 165 -197 128 -106 128 0 c 4
 128 106 165 197 240 272 c 4
 315 347 406 384 512 384 c 6
 896 384 l 5
 896 256 l 5
EndSplineSet
Validated: 1
EndChar

StartChar: f
Encoding: 102 102 8
Width: 1024
Flags: HW
LayerCount: 2
Fore
SplineSet
448 384 m 5
 576 384 l 5
 896 -384 l 5
 768 -384 l 5
 512 256 l 5
 256 -384 l 5
 128 -384 l 5
 448 384 l 5
EndSplineSet
Validated: 1
EndChar

StartChar: g
Encoding: 103 103 9
Width: 1024
VWidth: 1689
Flags: HW
LayerCount: 2
Fore
SplineSet
896 384 m 5
 896 256 l 5
 256 256 l 5
 256 0 l 6
 256 -71 281 -131 331 -181 c 4
 381 -231 441 -256 512 -256 c 4
 654 -256 740 -151 761 -64 c 5
 448 -64 l 5
 448 64 l 5
 896 64 l 5
 896 0 l 6
 896 -106 859 -197 784 -272 c 4
 709 -347 618 -384 512 -384 c 4
 406 -384 315 -347 240 -272 c 4
 165 -197 128 -106 128 0 c 6
 128 384 l 5
 896 384 l 5
EndSplineSet
Validated: 1
EndChar

StartChar: h
Encoding: 104 104 10
Width: 1024
Flags: HW
LayerCount: 2
Fore
SplineSet
896 -384 m 5
 768 -384 l 5
 768 -117 l 5
 128 -384 l 5
 128 384 l 5
 768 117 l 5
 768 384 l 5
 896 384 l 5
 896 -384 l 5
768 0 m 5
 256 205 l 5
 256 -205 l 5
 768 0 l 5
EndSplineSet
Validated: 1
EndChar

StartChar: i
Encoding: 105 105 11
Width: 1024
VWidth: 1689
Flags: HW
LayerCount: 2
Fore
SplineSet
128 -256 m 5
 512 -256 l 6
 583 -256 643 -231 693 -181 c 4
 743 -131 768 -71 768 -0 c 4
 768 71 743 131 693 181 c 4
 643 231 583 256 512 256 c 6
 128 256 l 5
 128 384 l 5
 512 384 l 6
 617 384 709 347 784 272 c 4
 859 197 896 106 896 -0 c 4
 896 -106 859 -197 784 -272 c 4
 709 -347 618 -384 512 -384 c 6
 128 -384 l 5
 128 -256 l 5
EndSplineSet
Validated: 1
EndChar

StartChar: j
Encoding: 106 106 12
Width: 1024
Flags: HW
LayerCount: 2
Fore
SplineSet
128 -384 m 1
 128 -256 l 1
 395 -256 l 1
 128 384 l 1
 896 384 l 1
 629 -256 l 1
 896 -256 l 1
 896 -384 l 1
 128 -384 l 1
512 -256 m 1
 717 256 l 1
 307 256 l 1
 512 -256 l 1
EndSplineSet
Validated: 1
EndChar

StartChar: k
Encoding: 107 107 13
Width: 1024
Flags: HW
LayerCount: 2
Fore
SplineSet
128 384 m 1
 256 384 l 1
 256 117 l 1
 896 384 l 1
 896 -384 l 1
 256 -117 l 1
 256 -384 l 1
 128 -384 l 1
 128 384 l 1
256 0 m 1
 768 -205 l 1
 768 205 l 1
 256 0 l 1
EndSplineSet
Validated: 1
EndChar

StartChar: l
Encoding: 108 108 14
Width: 1024
Flags: HW
LayerCount: 2
Fore
SplineSet
896 64 m 5
 896 -64 l 5
 128 -384 l 5
 128 384 l 5
 896 64 l 5
256 -205 m 5
 768 0 l 5
 256 205 l 5
 256 -205 l 5
EndSplineSet
Validated: 1
EndChar

StartChar: m
Encoding: 109 109 15
Width: 1024
VWidth: 1689
Flags: HW
LayerCount: 2
Fore
SplineSet
128 384 m 5
 256 384 l 5
 256 -256 l 5
 512 -256 l 6
 583 -256 643 -231 693 -181 c 4
 743 -131 768 -71 768 -0 c 4
 768 142 663 228 576 249 c 5
 576 -64 l 5
 448 -64 l 5
 448 384 l 5
 512 384 l 6
 618 384 709 347 784 272 c 4
 859 197 896 106 896 -0 c 4
 896 -106 859 -197 784 -272 c 4
 709 -347 618 -384 512 -384 c 6
 128 -384 l 5
 128 384 l 5
EndSplineSet
Validated: 1
EndChar

StartChar: n
Encoding: 110 110 16
Width: 1024
VWidth: 1689
Flags: HW
LayerCount: 2
Fore
SplineSet
128 -384 m 5
 128 -256 l 5
 768 -256 l 5
 768 0 l 6
 768 71 743 131 693 181 c 4
 643 231 583 256 512 256 c 4
 370 256 284 151 263 64 c 5
 576 64 l 5
 576 -64 l 5
 128 -64 l 5
 128 0 l 6
 128 106 165 197 240 272 c 4
 315 347 406 384 512 384 c 4
 618 384 709 347 784 272 c 4
 859 197 896 106 896 0 c 6
 896 -384 l 5
 128 -384 l 5
EndSplineSet
Validated: 1
EndChar

StartChar: o
Encoding: 111 111 17
Width: 1024
VWidth: 1689
Flags: HW
LayerCount: 2
Fore
SplineSet
256 384 m 5
 256 0 l 6
 256 -71 281 -131 331 -181 c 4
 381 -231 441 -256 512 -256 c 4
 583 -256 643 -231 693 -181 c 4
 743 -131 768 -71 768 0 c 6
 768 384 l 5
 896 384 l 5
 896 0 l 6
 896 -105 859 -197 784 -272 c 4
 709 -347 618 -384 512 -384 c 4
 406 -384 315 -347 240 -272 c 4
 165 -197 128 -106 128 0 c 6
 128 384 l 5
 256 384 l 5
EndSplineSet
Validated: 1
EndChar

StartChar: p
Encoding: 112 112 18
Width: 1024
VWidth: 1689
Flags: HW
LayerCount: 2
Fore
SplineSet
896 -384 m 5
 768 -384 l 5
 768 256 l 5
 512 256 l 6
 441 256 381 231 331 181 c 4
 281 131 256 71 256 0 c 4
 256 -71 281 -131 331 -181 c 4
 381 -231 441 -256 512 -256 c 6
 576 -256 l 5
 576 -384 l 5
 512 -384 l 6
 406 -384 315 -347 240 -272 c 4
 165 -197 128 -106 128 0 c 4
 128 106 165 197 240 272 c 4
 315 347 406 384 512 384 c 6
 896 384 l 5
 896 -384 l 5
EndSplineSet
Validated: 1
EndChar

StartChar: q
Encoding: 113 113 19
Width: 1024
Flags: HW
LayerCount: 2
Fore
SplineSet
896 64 m 5
 896 -64 l 5
 128 -384 l 5
 128 -256 l 5
 768 0 l 5
 128 256 l 5
 128 384 l 5
 896 64 l 5
EndSplineSet
Validated: 1
EndChar

StartChar: r
Encoding: 114 114 20
Width: 1024
Flags: HW
LayerCount: 2
Fore
SplineSet
128 -64 m 5
 128 64 l 5
 896 384 l 5
 896 -384 l 5
 128 -64 l 5
768 205 m 5
 256 0 l 5
 768 -205 l 5
 768 205 l 5
EndSplineSet
Validated: 1
EndChar

StartChar: s
Encoding: 115 115 21
Width: 1024
Flags: HW
LayerCount: 2
Fore
SplineSet
896 384 m 5
 896 256 l 5
 629 256 l 5
 896 -384 l 5
 768 -384 l 5
 512 256 l 5
 256 -384 l 5
 128 -384 l 5
 395 256 l 5
 128 256 l 5
 128 384 l 5
 896 384 l 5
EndSplineSet
Validated: 1
EndChar

StartChar: t
Encoding: 116 116 22
Width: 1024
VWidth: 1689
Flags: HW
LayerCount: 2
Fore
SplineSet
896 384 m 5
 896 256 l 5
 256 256 l 5
 256 0 l 6
 256 -71 281 -131 331 -181 c 4
 381 -231 441 -256 512 -256 c 4
 583 -256 643 -231 693 -181 c 4
 743 -131 768 -71 768 0 c 6
 768 64 l 5
 896 64 l 5
 896 0 l 6
 896 -106 859 -197 784 -272 c 4
 709 -347 618 -384 512 -384 c 4
 406 -384 315 -347 240 -272 c 4
 165 -197 128 -106 128 0 c 6
 128 384 l 5
 896 384 l 5
EndSplineSet
Validated: 1
EndChar

StartChar: v
Encoding: 118 118 23
Width: 1024
Flags: HW
LayerCount: 2
Fore
SplineSet
576 -384 m 5
 448 -384 l 5
 128 384 l 5
 256 384 l 5
 512 -256 l 5
 768 384 l 5
 896 384 l 5
 576 -384 l 5
EndSplineSet
Validated: 1
EndChar

StartChar: w
Encoding: 119 119 24
Width: 1024
Flags: HW
LayerCount: 2
Fore
SplineSet
448 384 m 5
 576 384 l 5
 896 -384 l 5
 128 -384 l 5
 448 384 l 5
717 -256 m 5
 512 256 l 5
 307 -256 l 5
 717 -256 l 5
EndSplineSet
Validated: 1
EndChar

StartChar: y
Encoding: 121 121 25
Width: 1024
Flags: HW
LayerCount: 2
Fore
SplineSet
576 -384 m 5
 448 -384 l 5
 128 384 l 5
 896 384 l 5
 576 -384 l 5
307 256 m 5
 512 -256 l 5
 717 256 l 5
 307 256 l 5
EndSplineSet
Validated: 1
EndChar

StartChar: z
Encoding: 122 122 26
Width: 1024
Flags: HW
LayerCount: 2
Fore
SplineSet
128 -384 m 5
 128 -256 l 5
 395 -256 l 5
 128 384 l 5
 256 384 l 5
 512 -256 l 5
 768 384 l 5
 896 384 l 5
 629 -256 l 5
 896 -256 l 5
 896 -384 l 5
 128 -384 l 5
EndSplineSet
Validated: 1
EndChar

StartChar: A
Encoding: 65 65 27
Width: 1024
VWidth: 1689
Flags: HW
LayerCount: 2
Fore
SplineSet
768 -64 m 5
 256 -64 l 5
 256 -384 l 5
 128 -384 l 5
 128 0 l 6
 128 105 165 197 240 272 c 4
 315 347 406 384 512 384 c 4
 618 384 709 347 784 272 c 4
 859 197 896 106 896 0 c 6
 896 -384 l 5
 768 -384 l 5
 768 -64 l 5
761 64 m 5
 740 151 654 256 512 256 c 4
 370 256 284 151 263 64 c 5
 761 64 l 5
EndSplineSet
Validated: 1
EndChar

StartChar: C
Encoding: 67 67 28
Width: 1024
Flags: HW
LayerCount: 2
Fore
SplineSet
128 384 m 5
 256 384 l 5
 256 117 l 5
 896 384 l 5
 896 256 l 5
 256 0 l 5
 896 -256 l 5
 896 -384 l 5
 256 -117 l 5
 256 -384 l 5
 128 -384 l 5
 128 384 l 5
EndSplineSet
Validated: 1
EndChar

StartChar: E
Encoding: 69 69 29
Width: 1024
VWidth: 1689
Flags: HW
LayerCount: 2
Fore
SplineSet
576 256 m 5
 576 -256 l 5
 896 -256 l 5
 896 -384 l 5
 512 -384 l 6
 407 -384 315 -347 240 -272 c 4
 165 -197 128 -106 128 0 c 4
 128 106 165 197 240 272 c 4
 315 347 406 384 512 384 c 6
 896 384 l 5
 896 256 l 5
 576 256 l 5
448 249 m 5
 361 228 256 142 256 0 c 4
 256 -142 361 -228 448 -249 c 5
 448 249 l 5
EndSplineSet
Validated: 1
EndChar

StartChar: I
Encoding: 73 73 30
Width: 1024
VWidth: 1689
Flags: HW
LayerCount: 2
Fore
SplineSet
448 -256 m 5
 448 256 l 5
 128 256 l 5
 128 384 l 5
 512 384 l 6
 617 384 709 347 784 272 c 4
 859 197 896 106 896 -0 c 4
 896 -106 859 -197 784 -272 c 4
 709 -347 618 -384 512 -384 c 6
 128 -384 l 5
 128 -256 l 5
 448 -256 l 5
576 -249 m 5
 663 -228 768 -142 768 -0 c 4
 768 142 663 228 576 249 c 5
 576 -249 l 5
EndSplineSet
Validated: 1
EndChar

StartChar: N
Encoding: 78 78 31
Width: 1024
VWidth: 1689
Flags: HW
LayerCount: 2
Fore
SplineSet
896 -384 m 5
 768 -384 l 5
 768 256 l 5
 512 256 l 6
 441 256 381 231 331 181 c 4
 281 131 256 71 256 0 c 4
 256 -142 361 -228 448 -249 c 5
 448 64 l 5
 576 64 l 5
 576 -384 l 5
 512 -384 l 6
 406 -384 315 -347 240 -272 c 4
 165 -197 128 -106 128 0 c 4
 128 106 165 197 240 272 c 4
 315 347 406 384 512 384 c 6
 896 384 l 5
 896 -384 l 5
EndSplineSet
Validated: 1
EndChar

StartChar: O
Encoding: 79 79 32
Width: 1024
VWidth: 1689
Flags: HW
LayerCount: 2
Fore
SplineSet
256 64 m 5
 768 64 l 5
 768 384 l 5
 896 384 l 5
 896 0 l 6
 896 -105 859 -197 784 -272 c 4
 709 -347 618 -384 512 -384 c 4
 406 -384 315 -347 240 -272 c 4
 165 -197 128 -106 128 0 c 6
 128 384 l 5
 256 384 l 5
 256 64 l 5
263 -64 m 5
 284 -151 370 -256 512 -256 c 4
 654 -256 740 -151 761 -64 c 5
 263 -64 l 5
EndSplineSet
Validated: 1
EndChar

StartChar: Q
Encoding: 81 81 33
Width: 1024
Flags: HW
LayerCount: 2
Fore
SplineSet
128 -64 m 5
 128 64 l 5
 896 384 l 5
 896 256 l 5
 256 0 l 5
 896 -256 l 5
 896 -384 l 5
 128 -64 l 5
EndSplineSet
Validated: 1
EndChar

StartChar: S
Encoding: 83 83 34
Width: 1024
Flags: HW
LayerCount: 2
Fore
SplineSet
896 -384 m 5
 768 -384 l 5
 768 -117 l 5
 128 -384 l 5
 128 -256 l 5
 768 0 l 5
 128 256 l 5
 128 384 l 5
 768 117 l 5
 768 384 l 5
 896 384 l 5
 896 -384 l 5
EndSplineSet
Validated: 1
EndChar

StartChar: Z
Encoding: 90 90 35
Width: 1024
Flags: HW
LayerCount: 2
Fore
SplineSet
896 384 m 1
 896 256 l 1
 629 256 l 1
 896 -384 l 1
 128 -384 l 1
 395 256 l 1
 128 256 l 1
 128 384 l 1
 896 384 l 1
512 256 m 1
 307 -256 l 1
 717 -256 l 1
 512 256 l 1
EndSplineSet
Validated: 1
EndChar

StartChar: uni00A0
Encoding: 160 160 36
Width: 1024
VWidth: 1689
Flags: HW
LayerCount: 2
Back
SplineSet
0 16 m 29
 1024 16 l 29
 1024 -16 l 29
 0 -16 l 29
 0 16 l 29
EndSplineSet
Fore
SplineSet
128 -256 m 1
 768 -256 l 1
 768 0 l 2
 768 144 660 228 576 249 c 1
 576 -64 l 1
 448 -64 l 1
 448 384 l 1
 512 384 l 2
 618 384 709 347 784 272 c 0
 859 197 896 106 896 0 c 2
 896 -384 l 1
 128 -384 l 1
 128 -256 l 1
EndSplineSet
Validated: 1
EndChar

StartChar: cedilla
Encoding: 184 184 37
Width: 1024
Flags: HW
LayerCount: 2
Fore
SplineSet
896 64 m 5
 896 -64 l 5
 128 -384 l 5
 128 -256 l 5
 768 0 l 5
 128 256 l 5
 128 384 l 5
 896 64 l 5
EndSplineSet
Validated: 1
EndChar

StartChar: uni00B9
Encoding: 185 185 38
Width: 1024
Flags: HW
LayerCount: 2
Fore
SplineSet
448 384 m 5
 576 384 l 5
 896 -384 l 5
 768 -384 l 5
 512 256 l 5
 256 -384 l 5
 128 -384 l 5
 448 384 l 5
EndSplineSet
Validated: 1
EndChar

StartChar: ordmasculine
Encoding: 186 186 39
Width: 1024
Flags: HW
LayerCount: 2
Fore
SplineSet
128 -64 m 5
 128 64 l 5
 896 384 l 5
 896 256 l 5
 256 0 l 5
 896 -256 l 5
 896 -384 l 5
 128 -64 l 5
EndSplineSet
Validated: 1
EndChar

StartChar: guillemotright
Encoding: 187 187 40
Width: 1024
Flags: HW
LayerCount: 2
Fore
SplineSet
576 -384 m 5
 448 -384 l 5
 128 384 l 5
 256 384 l 5
 512 -256 l 5
 768 384 l 5
 896 384 l 5
 576 -384 l 5
EndSplineSet
Validated: 1
EndChar

StartChar: comma
Encoding: 44 44 41
Width: 1024
VWidth: 1689
Flags: HW
LayerCount: 2
Fore
SplineSet
448 64 m 1
 576 64 l 1
 576 -64 l 1
 448 -64 l 1
 448 64 l 1
EndSplineSet
Validated: 1
EndChar

StartChar: uni008B
Encoding: 139 139 42
Width: 1024
Flags: H
LayerCount: 2
Back
SplineSet
331.125 -180.875 m 1
 377.5 -227.25 441.5 -256 512 -256 c 0
 582.5 -256 646.5 -227.25 692.875 -180.875 c 1025
692.875 -180.875 m 5
 739.25 -134.5 768 -70.5 768 0 c 4
 768 70.5 739.25 134.5 692.875 180.875 c 1025
692.875 180.875 m 1
 646.5 227.25 582.5 256 512 256 c 0
 441.5 256 377.5 227.25 331.125 180.875 c 1025
331.125 180.875 m 1
 284.75 134.5 256 70.5 256 0 c 0
 256 -70.5 284.75 -134.5 331.125 -180.875 c 1025
783.5 271.5 m 1
 853 202 896 106 896 0 c 4
 896 -106 853 -202 783.5 -271.5 c 1029
783.5 -271.5 m 1
 714 -341 618 -384 512 -384 c 0
 406 -384 310 -341 240.5 -271.5 c 1025
240.5 -271.5 m 1
 171 -202 128 -106 128 0 c 0
 128 106 171 202 240.5 271.5 c 1025
240.5 271.5 m 1
 310 341 406 384 512 384 c 0
 618 384 714 341 783.5 271.5 c 1025
EndSplineSet
Fore
Validated: 1
EndChar

StartChar: uni0097
Encoding: 151 151 43
Width: 1024
VWidth: 1689
Flags: HW
LayerCount: 2
Fore
SplineSet
128 384 m 1
 896 384 l 5
 896 256 l 5
 256 256 l 1
 256 -256 l 1
 512 -256 l 2
 583 -256 643 -231 693 -181 c 128
 743 -131 768 -71 768 0 c 2
 768 64 l 1
 896 64 l 1
 896 0 l 2
 896 -106 859 -197 784 -272 c 128
 709 -347 618 -384 512 -384 c 2
 128 -384 l 1
 128 384 l 1
EndSplineSet
Validated: 1
EndChar

StartChar: zero
Encoding: 48 48 44
Width: 1024
Flags: HW
LayerCount: 2
Fore
SplineSet
656 212 m 5
 615 240 566 256 512 256 c 4
 458 256 409 240 368 212 c 5
 368 -212 l 5
 409 -240 459 -256 512 -256 c 4
 565 -256 615 -240 656 -212 c 5
 656 212 l 5
784 -272 m 5
 714 -342 618 -384 512 -384 c 4
 406 -384 310 -341 241 -272 c 5
 241 -271 l 5
 240 -271 l 5
 240 272 l 5
 310 342 406 384 512 384 c 4
 618 384 714 341 784 271 c 5
 784 -272 l 5
EndSplineSet
Validated: 1
EndChar

StartChar: one
Encoding: 49 49 45
Width: 1024
Flags: HW
LayerCount: 2
Fore
SplineSet
576 -64 m 1
 576 -384 l 1
 448 -384 l 1
 448 248 l 1
 403 236 363 213 331 181 c 1
 240 272 l 1
 310 342 406 384 512 384 c 0
 534 384 555 382 576 379 c 1
 576 64 l 1
 896 64 l 5
 896 -64 l 5
 576 -64 l 1
EndSplineSet
Validated: 1
EndChar

StartChar: two
Encoding: 50 50 46
Width: 1024
Flags: HW
LayerCount: 2
Fore
SplineSet
576 64 m 1
 896 64 l 5
 896 -64 l 5
 576 -64 l 1
 576 -384 l 1
 448 -384 l 1
 448 379 l 1
 469 382 490 384 512 384 c 0
 618 384 714 342 784 272 c 1
 693 181 l 1
 661 213 621 236 576 248 c 1
 576 64 l 1
EndSplineSet
Validated: 1
EndChar

StartChar: three
Encoding: 51 51 47
Width: 1024
Flags: HW
LayerCount: 2
Fore
SplineSet
576 -379 m 1
 555 -382 534 -384 512 -384 c 0
 406 -384 310 -342 240 -272 c 1
 331 -181 l 1
 363 -213 403 -236 448 -248 c 1
 448 -64 l 1
 128 -64 l 5
 128 64 l 5
 448 64 l 1
 448 384 l 25
 576 384 l 25
 576 -379 l 1
EndSplineSet
Validated: 1
EndChar

StartChar: four
Encoding: 52 52 48
Width: 1024
Flags: HW
LayerCount: 2
Fore
SplineSet
448 64 m 1
 448 384 l 25
 576 384 l 25
 576 -248 l 17
 621 -236 661 -213 693 -181 c 1
 784 -272 l 1
 714 -342 618 -384 512 -384 c 0
 490 -384 469 -382 448 -379 c 1
 448 -64 l 1
 128 -64 l 5
 128 64 l 5
 448 64 l 1
EndSplineSet
Validated: 1
EndChar

StartChar: five
Encoding: 53 53 49
Width: 1024
Flags: HW
LayerCount: 2
Fore
SplineSet
448 248 m 1
 403 236 363 213 331 181 c 1
 240 272 l 1
 310 342 406 384 512 384 c 0
 534 384 555 382 576 379 c 1
 576 64 l 1
 896 64 l 5
 896 -64 l 5
 576 -64 l 1
 576 -248 l 1
 621 -236 661 -213 693 -181 c 1
 784 -272 l 1
 714 -342 618 -384 512 -384 c 0
 490 -384 469 -382 448 -379 c 1
 448 248 l 1
EndSplineSet
Validated: 1
EndChar

StartChar: six
Encoding: 54 54 50
Width: 1024
Flags: HW
LayerCount: 2
Fore
SplineSet
448 -248 m 1
 448 379 l 1
 469 382 490 384 512 384 c 0
 618 384 714 342 784 272 c 1
 693 181 l 1
 661 213 621 236 576 248 c 1
 576 64 l 1
 896 64 l 5
 896 -64 l 5
 576 -64 l 1
 576 -379 l 1
 555 -382 534 -384 512 -384 c 0
 406 -384 310 -342 240 -272 c 1
 331 -181 l 1
 363 -213 403 -236 448 -248 c 1
EndSplineSet
Validated: 1
EndChar

StartChar: seven
Encoding: 55 55 51
Width: 1024
Flags: HW
LayerCount: 2
Fore
SplineSet
576 -248 m 1
 621 -236 661 -213 693 -181 c 1
 784 -272 l 1
 714 -342 618 -384 512 -384 c 0
 490 -384 469 -382 448 -379 c 1
 448 -64 l 1
 128 -64 l 1
 128 64 l 1
 448 64 l 1
 448 248 l 1
 403 236 363 213 331 181 c 1
 240 272 l 1
 310 342 406 384 512 384 c 0
 534 384 555 382 576 379 c 1
 576 -248 l 1
EndSplineSet
Validated: 1
EndChar

StartChar: eight
Encoding: 56 56 52
Width: 1024
Flags: HW
LayerCount: 2
Fore
SplineSet
576 248 m 1
 576 -379 l 1
 555 -382 534 -384 512 -384 c 0
 406 -384 310 -342 240 -272 c 1
 331 -181 l 1
 363 -213 403 -236 448 -248 c 1
 448 -64 l 1
 128 -64 l 5
 128 64 l 5
 448 64 l 1
 448 379 l 1
 469 382 490 384 512 384 c 0
 618 384 714 342 784 272 c 1
 693 181 l 1
 661 213 621 236 576 248 c 1
EndSplineSet
Validated: 1
EndChar

StartChar: nine
Encoding: 57 57 53
Width: 1024
Flags: HW
LayerCount: 2
Fore
SplineSet
576 -64 m 1
 576 -248 l 1
 621 -236 661 -213 693 -181 c 1
 784 -272 l 1
 714 -342 618 -384 512 -384 c 0
 490 -384 469 -382 448 -379 c 1
 448 -64 l 1
 128 -64 l 5
 128 64 l 5
 448 64 l 1
 448 248 l 1
 403 236 363 213 331 181 c 1
 240 272 l 1
 310 342 406 384 512 384 c 0
 534 384 555 382 576 379 c 1
 576 64 l 1
 760 64 l 1
 748 109 725 149 693 181 c 1
 784 272 l 1
 854 202 896 106 896 0 c 0
 896 -22 894 -43 891 -64 c 1
 576 -64 l 1
EndSplineSet
Validated: 1
EndChar

StartChar: exclam
Encoding: 33 33 54
Width: 1024
Flags: HW
LayerCount: 2
Fore
SplineSet
448 -64 m 1
 133 -64 l 1
 130 -43 128 -22 128 0 c 0
 128 106 170 202 240 272 c 1
 331 181 l 1
 299 149 276 109 264 64 c 1
 448 64 l 1
 448 379 l 1
 469 382 490 384 512 384 c 0
 618 384 714 342 784 272 c 1
 693 181 l 1
 661 213 621 236 576 248 c 1
 576 64 l 1
 896 64 l 5
 896 -64 l 5
 576 -64 l 1
 576 -379 l 1
 555 -382 534 -384 512 -384 c 0
 406 -384 310 -342 240 -272 c 1
 331 -181 l 1
 363 -213 403 -236 448 -248 c 1
 448 -64 l 1
EndSplineSet
Validated: 1
EndChar

StartChar: at
Encoding: 64 64 55
Width: 1024
Flags: HW
LayerCount: 2
Fore
SplineSet
331 -181 m 5
 240 -272 l 5
 170 -202 128 -106 128 0 c 4
 128 22 130 43 133 64 c 5
 448 64 l 5
 448 248 l 5
 403 236 363 213 331 181 c 5
 240 272 l 5
 310 342 406 384 512 384 c 4
 534 384 555 382 576 379 c 5
 576 64 l 5
 760 64 l 5
 748 109 725 149 693 181 c 5
 784 272 l 5
 854 202 896 106 896 0 c 4
 896 -22 894 -43 891 -64 c 5
 576 -64 l 5
 576 -248 l 5
 621 -236 661 -213 693 -181 c 5
 784 -272 l 5
 714 -342 618 -384 512 -384 c 4
 490 -384 469 -382 448 -379 c 5
 448 -64 l 5
 264 -64 l 5
 276 -109 299 -149 331 -181 c 5
EndSplineSet
Validated: 1
EndChar

StartChar: degree
Encoding: 176 176 56
Width: 1024
VWidth: 1689
Flags: HW
LayerCount: 2
Fore
SplineSet
128 -384 m 5
 128 -256 l 1
 448 -256 l 1
 448 64 l 1
 576 64 l 1
 576 -256 l 1
 768 -256 l 1
 768 0 l 2
 768 71 743 131 693 181 c 0
 643 231 583 256 512 256 c 2
 448 256 l 1
 448 384 l 1
 512 384 l 2
 618 384 709 347 784 272 c 0
 859 197 896 106 896 0 c 2
 896 -384 l 5
 128 -384 l 5
EndSplineSet
Validated: 1
EndChar

StartChar: plusminus
Encoding: 177 177 57
Width: 1024
VWidth: 1689
Flags: HW
LayerCount: 2
Fore
SplineSet
896 -384 m 5
 768 -384 l 1
 768 -64 l 1
 448 -64 l 1
 448 64 l 1
 768 64 l 1
 768 256 l 1
 512 256 l 2
 441 256 381 231 331 181 c 0
 281 131 256 71 256 0 c 2
 256 -64 l 1
 128 -64 l 1
 128 0 l 2
 128 106 165 197 240 272 c 0
 315 347 406 384 512 384 c 2
 896 384 l 5
 896 -384 l 5
EndSplineSet
Validated: 1
EndChar

StartChar: uni00B2
Encoding: 178 178 58
Width: 1024
VWidth: 1689
Flags: HW
LayerCount: 2
Fore
SplineSet
896 384 m 5
 896 256 l 1
 576 256 l 1
 576 -64 l 1
 448 -64 l 1
 448 256 l 1
 256 256 l 1
 256 0 l 2
 256 -71 281 -131 331 -181 c 0
 381 -231 441 -256 512 -256 c 2
 576 -256 l 1
 576 -384 l 1
 512 -384 l 2
 406 -384 315 -347 240 -272 c 0
 165 -197 128 -106 128 0 c 2
 128 384 l 5
 896 384 l 5
EndSplineSet
Validated: 1
EndChar

StartChar: uni00B3
Encoding: 179 179 59
Width: 1024
VWidth: 1689
Flags: HW
LayerCount: 2
Fore
SplineSet
128 384 m 5
 256 384 l 1
 256 64 l 1
 576 64 l 1
 576 -64 l 1
 256 -64 l 1
 256 -256 l 1
 512 -256 l 2
 583 -256 643 -231 693 -181 c 0
 743 -131 768 -71 768 0 c 2
 768 64 l 1
 896 64 l 1
 896 0 l 2
 896 -106 859 -197 784 -272 c 0
 709 -347 618 -384 512 -384 c 2
 128 -384 l 5
 128 384 l 5
EndSplineSet
Validated: 1
EndChar

StartChar: acute
Encoding: 180 180 60
Width: 1024
VWidth: 1689
Flags: HW
LayerCount: 2
Fore
SplineSet
128 -384 m 1
 128 384 l 5
 256 384 l 5
 256 -256 l 1
 448 -256 l 1
 448 64 l 1
 576 64 l 1
 576 -256 l 1
 768 -256 l 1
 768 0 l 2
 768 71 743 131 693 181 c 0
 643 231 583 256 512 256 c 2
 448 256 l 1
 448 384 l 1
 512 384 l 2
 618 384 709 347 784 272 c 0
 859 197 896 106 896 0 c 2
 896 -384 l 1
 128 -384 l 1
EndSplineSet
Validated: 1
EndChar

StartChar: mu
Encoding: 181 181 61
Width: 1024
VWidth: 1689
Flags: HW
LayerCount: 2
Fore
SplineSet
896 -384 m 1
 128 -384 l 5
 128 -256 l 5
 768 -256 l 1
 768 -64 l 1
 448 -64 l 1
 448 64 l 1
 768 64 l 1
 768 256 l 1
 512 256 l 2
 441 256 381 231 331 181 c 0
 281 131 256 71 256 0 c 2
 256 -64 l 1
 128 -64 l 1
 128 0 l 2
 128 106 165 197 240 272 c 0
 315 347 406 384 512 384 c 2
 896 384 l 1
 896 -384 l 1
EndSplineSet
Validated: 1
EndChar

StartChar: paragraph
Encoding: 182 182 62
Width: 1024
VWidth: 1689
Flags: HW
LayerCount: 2
Fore
SplineSet
896 384 m 1
 896 -384 l 5
 768 -384 l 5
 768 256 l 1
 576 256 l 1
 576 -64 l 1
 448 -64 l 1
 448 256 l 1
 256 256 l 1
 256 0 l 2
 256 -71 281 -131 331 -181 c 0
 381 -231 441 -256 512 -256 c 2
 576 -256 l 1
 576 -384 l 1
 512 -384 l 2
 406 -384 315 -347 240 -272 c 0
 165 -197 128 -106 128 0 c 2
 128 384 l 1
 896 384 l 1
EndSplineSet
Validated: 1
EndChar

StartChar: periodcentered
Encoding: 183 183 63
Width: 1024
VWidth: 1689
Flags: HW
LayerCount: 2
Fore
SplineSet
128 384 m 1
 896 384 l 5
 896 256 l 5
 256 256 l 1
 256 64 l 1
 576 64 l 1
 576 -64 l 1
 256 -64 l 1
 256 -256 l 1
 512 -256 l 2
 583 -256 643 -231 693 -181 c 0
 743 -131 768 -71 768 0 c 2
 768 64 l 1
 896 64 l 1
 896 0 l 2
 896 -106 859 -197 784 -272 c 0
 709 -347 618 -384 512 -384 c 2
 128 -384 l 1
 128 384 l 1
EndSplineSet
Validated: 1
EndChar

StartChar: Agrave
Encoding: 192 192 64
Width: 1024
VWidth: 1689
Flags: HW
LayerCount: 2
Fore
SplineSet
761 64 m 1
 740 148 656 256 512 256 c 2
 448 256 l 1
 448 384 l 1
 512 384 l 2
 618 384 709 347 784 272 c 0
 859 197 896 106 896 0 c 2
 896 -384 l 1
 128 -384 l 1
 128 -256 l 1
 768 -256 l 1
 768 -64 l 1
 448 -64 l 1
 448 64 l 1
 761 64 l 1
EndSplineSet
Validated: 1
EndChar

StartChar: Aacute
Encoding: 193 193 65
Width: 1024
VWidth: 1689
Flags: HW
LayerCount: 2
Fore
SplineSet
448 249 m 1
 364 228 256 144 256 0 c 2
 256 -64 l 1
 128 -64 l 1
 128 0 l 2
 128 106 165 197 240 272 c 0
 315 347 406 384 512 384 c 2
 896 384 l 1
 896 -384 l 1
 768 -384 l 1
 768 256 l 1
 576 256 l 1
 576 -64 l 1
 448 -64 l 1
 448 249 l 1
EndSplineSet
Validated: 1
EndChar

StartChar: Acircumflex
Encoding: 194 194 66
Width: 1024
VWidth: 1689
Flags: HW
LayerCount: 2
Fore
SplineSet
263 -64 m 1
 284 -148 368 -256 512 -256 c 2
 576 -256 l 1
 576 -384 l 1
 512 -384 l 2
 406 -384 315 -347 240 -272 c 0
 165 -197 128 -106 128 0 c 2
 128 384 l 1
 896 384 l 1
 896 256 l 1
 256 256 l 1
 256 64 l 1
 576 64 l 1
 576 -64 l 1
 263 -64 l 1
EndSplineSet
Validated: 1
EndChar

StartChar: Atilde
Encoding: 195 195 67
Width: 1024
VWidth: 1689
Flags: HW
LayerCount: 2
Fore
SplineSet
576 -249 m 1
 660 -228 768 -144 768 0 c 2
 768 64 l 1
 896 64 l 1
 896 0 l 2
 896 -106 859 -197 784 -272 c 0
 709 -347 618 -384 512 -384 c 2
 128 -384 l 1
 128 384 l 1
 256 384 l 1
 256 -256 l 1
 448 -256 l 1
 448 64 l 1
 576 64 l 1
 576 -249 l 1
EndSplineSet
Validated: 1
EndChar

StartChar: Adieresis
Encoding: 196 196 68
Width: 1024
VWidth: 1689
Flags: HW
LayerCount: 2
Fore
SplineSet
761 64 m 1
 740 148 656 256 512 256 c 2
 448 256 l 1
 448 384 l 1
 512 384 l 2
 618 384 709 347 784 272 c 0
 859 197 896 106 896 0 c 2
 896 -384 l 1
 128 -384 l 1
 128 384 l 5
 256 384 l 5
 256 -256 l 1
 768 -256 l 1
 768 -64 l 1
 448 -64 l 1
 448 64 l 1
 761 64 l 1
EndSplineSet
Validated: 1
EndChar

StartChar: Aring
Encoding: 197 197 69
Width: 1024
VWidth: 1689
Flags: HW
LayerCount: 2
Fore
SplineSet
448 249 m 1
 364 228 256 144 256 0 c 2
 256 -64 l 1
 128 -64 l 1
 128 0 l 2
 128 106 165 197 240 272 c 0
 315 347 406 384 512 384 c 2
 896 384 l 1
 896 -384 l 1
 128 -384 l 5
 128 -256 l 5
 768 -256 l 1
 768 256 l 1
 576 256 l 1
 576 -64 l 1
 448 -64 l 1
 448 249 l 1
EndSplineSet
Validated: 1
EndChar

StartChar: AE
Encoding: 198 198 70
Width: 1024
VWidth: 1689
Flags: HW
LayerCount: 2
Fore
SplineSet
263 -64 m 1
 284 -148 368 -256 512 -256 c 2
 576 -256 l 1
 576 -384 l 1
 512 -384 l 2
 406 -384 315 -347 240 -272 c 0
 165 -197 128 -106 128 0 c 2
 128 384 l 1
 896 384 l 1
 896 -384 l 5
 768 -384 l 5
 768 256 l 1
 256 256 l 1
 256 64 l 1
 576 64 l 1
 576 -64 l 1
 263 -64 l 1
EndSplineSet
Validated: 1
EndChar

StartChar: Ccedilla
Encoding: 199 199 71
Width: 1024
VWidth: 1689
Flags: HW
LayerCount: 2
Fore
SplineSet
576 -249 m 1
 660 -228 768 -144 768 0 c 2
 768 64 l 1
 896 64 l 1
 896 0 l 2
 896 -106 859 -197 784 -272 c 0
 709 -347 618 -384 512 -384 c 2
 128 -384 l 1
 128 384 l 1
 896 384 l 5
 896 256 l 5
 256 256 l 1
 256 -256 l 1
 448 -256 l 1
 448 64 l 1
 576 64 l 1
 576 -249 l 1
EndSplineSet
Validated: 1
EndChar

StartChar: Eth
Encoding: 208 208 72
Width: 1024
Flags: HW
LayerCount: 2
Fore
SplineSet
656 212 m 1
 615 240 566 256 512 256 c 0
 458 256 409 240 368 212 c 1
 368 -212 l 1
 409 -240 459 -256 512 -256 c 0
 565 -256 615 -240 656 -212 c 1
 656 212 l 1
784 -272 m 1
 714 -342 618 -384 512 -384 c 0
 406 -384 310 -341 241 -272 c 1
 241 -271 l 1
 240 -271 l 1
 240 272 l 1
 310 342 406 384 512 384 c 0
 618 384 714 341 784 271 c 1
 784 -272 l 1
EndSplineSet
Validated: 1
EndChar

StartChar: Ntilde
Encoding: 209 209 73
Width: 1024
Flags: HW
LayerCount: 2
Fore
SplineSet
576 64 m 1
 768 64 l 1
 768 -64 l 1
 576 -64 l 1
 576 -384 l 1
 448 -384 l 1
 448 379 l 1
 469 382 490 384 512 384 c 0
 618 384 714 342 784 272 c 1
 693 181 l 1
 661 213 621 236 576 248 c 1
 576 64 l 1
EndSplineSet
Validated: 1
EndChar

StartChar: Ograve
Encoding: 210 210 74
Width: 1024
Flags: HW
LayerCount: 2
Fore
SplineSet
576 -64 m 1
 576 -384 l 1
 448 -384 l 1
 448 248 l 1
 403 236 363 213 331 181 c 1
 240 272 l 1
 310 342 406 384 512 384 c 0
 534 384 555 382 576 379 c 1
 576 64 l 1
 768 64 l 1
 768 -64 l 1
 576 -64 l 1
EndSplineSet
Validated: 1
EndChar

StartChar: Oacute
Encoding: 211 211 75
Width: 1024
Flags: HW
LayerCount: 2
Fore
SplineSet
576 -379 m 5
 555 -382 534 -384 512 -384 c 0
 406 -384 310 -342 240 -272 c 1
 331 -181 l 1
 363 -213 403 -236 448 -248 c 1
 448 -64 l 1
 256 -64 l 1
 256 64 l 1
 448 64 l 9
 448 384 l 25
 576 384 l 25
 576 -379 l 5
EndSplineSet
Validated: 1
EndChar

StartChar: Ocircumflex
Encoding: 212 212 76
Width: 1024
Flags: HW
LayerCount: 2
Fore
SplineSet
448 64 m 1
 448 384 l 25
 576 384 l 25
 576 -248 l 17
 621 -236 661 -213 693 -181 c 1
 784 -272 l 1
 714 -342 618 -384 512 -384 c 0
 490 -384 469 -382 448 -379 c 1
 448 -64 l 1
 256 -64 l 1
 256 64 l 1
 448 64 l 1
EndSplineSet
Validated: 1
EndChar

StartChar: Otilde
Encoding: 213 213 77
Width: 1024
Flags: HW
LayerCount: 2
Fore
SplineSet
448 -248 m 1
 448 379 l 1
 469 382 490 384 512 384 c 0
 618 384 714 342 784 272 c 1
 693 181 l 1
 661 213 621 236 576 248 c 1
 576 64 l 5
 768 64 l 5
 768 -64 l 5
 576 -64 l 5
 576 -379 l 1
 555 -382 534 -384 512 -384 c 0
 406 -384 310 -342 240 -272 c 1
 331 -181 l 1
 363 -213 403 -236 448 -248 c 1
EndSplineSet
Validated: 1
EndChar

StartChar: Odieresis
Encoding: 214 214 78
Width: 1024
Flags: HW
LayerCount: 2
Fore
SplineSet
448 248 m 1
 403 236 363 213 331 181 c 1
 240 272 l 1
 310 342 406 384 512 384 c 0
 534 384 555 382 576 379 c 1
 576 64 l 1
 768 64 l 1
 768 -64 l 1
 576 -64 l 1
 576 -248 l 1
 621 -236 661 -213 693 -181 c 1
 784 -272 l 1
 714 -342 618 -384 512 -384 c 0
 490 -384 469 -382 448 -379 c 1
 448 248 l 1
EndSplineSet
Validated: 1
EndChar

StartChar: multiply
Encoding: 215 215 79
Width: 1024
Flags: HW
LayerCount: 2
Fore
SplineSet
576 248 m 5
 576 -379 l 5
 555 -382 534 -384 512 -384 c 4
 406 -384 310 -342 240 -272 c 5
 331 -181 l 5
 363 -213 403 -236 448 -248 c 5
 448 -64 l 5
 256 -64 l 5
 256 64 l 5
 448 64 l 5
 448 379 l 5
 469 382 490 384 512 384 c 4
 618 384 714 342 784 272 c 5
 693 181 l 5
 661 213 621 236 576 248 c 5
EndSplineSet
Validated: 1
EndChar

StartChar: Egrave
Encoding: 200 200 80
Width: 1024
Flags: HW
LayerCount: 2
Fore
SplineSet
896 64 m 5
 896 -64 l 5
 128 -384 l 5
 128 384 l 5
 896 64 l 5
256 -205 m 5
 768 0 l 5
 256 205 l 5
 256 -205 l 5
EndSplineSet
Validated: 1
EndChar

StartChar: Eacute
Encoding: 201 201 81
Width: 1024
Flags: HW
LayerCount: 2
Fore
SplineSet
448 384 m 5
 576 384 l 5
 896 -384 l 5
 128 -384 l 5
 448 384 l 5
717 -256 m 5
 512 256 l 5
 307 -256 l 5
 717 -256 l 5
EndSplineSet
Validated: 1
EndChar

StartChar: Ecircumflex
Encoding: 202 202 82
Width: 1024
Flags: HW
LayerCount: 2
Fore
SplineSet
128 -64 m 5
 128 64 l 5
 896 384 l 5
 896 -384 l 5
 128 -64 l 5
768 205 m 5
 256 0 l 5
 768 -205 l 5
 768 205 l 5
EndSplineSet
Validated: 1
EndChar

StartChar: Edieresis
Encoding: 203 203 83
Width: 1024
Flags: HW
LayerCount: 2
Fore
SplineSet
576 -384 m 5
 448 -384 l 5
 128 384 l 5
 896 384 l 5
 576 -384 l 5
307 256 m 5
 512 -256 l 5
 717 256 l 5
 307 256 l 5
EndSplineSet
Validated: 1
EndChar

StartChar: Igrave
Encoding: 204 204 84
Width: 1024
Flags: HW
LayerCount: 2
Fore
SplineSet
896 -384 m 1
 768 -384 l 1
 768 -117 l 1
 128 -384 l 1
 128 384 l 1
 768 117 l 1
 768 384 l 1
 896 384 l 1
 896 -384 l 1
768 0 m 1
 256 205 l 1
 256 -205 l 1
 768 0 l 1
EndSplineSet
Validated: 1
EndChar

StartChar: Iacute
Encoding: 205 205 85
Width: 1024
Flags: HW
LayerCount: 2
Fore
SplineSet
896 384 m 1
 896 256 l 1
 629 256 l 1
 896 -384 l 1
 128 -384 l 1
 395 256 l 1
 128 256 l 1
 128 384 l 1
 896 384 l 1
512 256 m 1
 307 -256 l 1
 717 -256 l 1
 512 256 l 1
EndSplineSet
Validated: 1
EndChar

StartChar: Icircumflex
Encoding: 206 206 86
Width: 1024
Flags: HW
LayerCount: 2
Fore
SplineSet
128 384 m 1
 256 384 l 1
 256 117 l 1
 896 384 l 1
 896 -384 l 1
 256 -117 l 1
 256 -384 l 1
 128 -384 l 1
 128 384 l 1
256 0 m 1
 768 -205 l 1
 768 205 l 1
 256 0 l 1
EndSplineSet
Validated: 1
EndChar

StartChar: Idieresis
Encoding: 207 207 87
Width: 1024
Flags: HW
LayerCount: 2
Fore
SplineSet
128 -384 m 1
 128 -256 l 1
 395 -256 l 1
 128 384 l 1
 896 384 l 1
 629 -256 l 1
 896 -256 l 1
 896 -384 l 1
 128 -384 l 1
512 -256 m 1
 717 256 l 1
 307 256 l 1
 512 -256 l 1
EndSplineSet
Validated: 1
EndChar

StartChar: Oslash
Encoding: 216 216 88
Width: 1024
Flags: HW
LayerCount: 2
Fore
SplineSet
576 -248 m 1
 621 -236 661 -213 693 -181 c 1
 784 -272 l 1
 714 -342 618 -384 512 -384 c 0
 490 -384 469 -382 448 -379 c 1
 448 -64 l 1
 256 -64 l 1
 256 64 l 1
 448 64 l 1
 448 248 l 1
 403 236 363 213 331 181 c 1
 240 272 l 1
 310 342 406 384 512 384 c 0
 534 384 555 382 576 379 c 1
 576 -248 l 1
EndSplineSet
Validated: 1
EndChar

StartChar: Udieresis
Encoding: 220 220 89
Width: 1024
Flags: HW
LayerCount: 2
Fore
SplineSet
448 -64 m 5
 256 -64 l 5
 256 64 l 5
 448 64 l 5
 448 384 l 5
 576 384 l 5
 576 64 l 5
 768 64 l 5
 768 -64 l 5
 576 -64 l 5
 576 -384 l 5
 448 -384 l 5
 448 -64 l 5
EndSplineSet
Validated: 1
EndChar

StartChar: Ugrave
Encoding: 217 217 90
Width: 1024
Flags: HW
LayerCount: 2
Fore
SplineSet
448 -64 m 5
 133 -64 l 5
 130 -43 128 -22 128 0 c 4
 128 106 170 202 240 272 c 5
 331 181 l 5
 299 149 276 109 264 64 c 5
 448 64 l 5
 448 379 l 5
 469 382 490 384 512 384 c 4
 618 384 714 342 784 272 c 5
 693 181 l 5
 661 213 621 236 576 248 c 5
 576 64 l 5
 768 64 l 5
 768 -64 l 5
 576 -64 l 5
 576 -379 l 5
 555 -382 534 -384 512 -384 c 4
 406 -384 310 -342 240 -272 c 5
 331 -181 l 5
 363 -213 403 -236 448 -248 c 5
 448 -64 l 5
EndSplineSet
Validated: 1
EndChar

StartChar: Uacute
Encoding: 218 218 91
Width: 1024
Flags: HW
LayerCount: 2
Fore
SplineSet
576 -64 m 1
 576 -248 l 1
 621 -236 661 -213 693 -181 c 1
 784 -272 l 1
 714 -342 618 -384 512 -384 c 0
 490 -384 469 -382 448 -379 c 1
 448 -64 l 1
 256 -64 l 1
 256 64 l 1
 448 64 l 1
 448 248 l 1
 403 236 363 213 331 181 c 1
 240 272 l 1
 310 342 406 384 512 384 c 0
 534 384 555 382 576 379 c 1
 576 64 l 1
 760 64 l 1
 748 109 725 149 693 181 c 1
 784 272 l 1
 854 202 896 106 896 0 c 0
 896 -22 894 -43 891 -64 c 1
 576 -64 l 1
EndSplineSet
Validated: 1
EndChar

StartChar: Ucircumflex
Encoding: 219 219 92
Width: 1024
Flags: HW
LayerCount: 2
Fore
SplineSet
693 -181 m 0
 725 -149 748 -109 760 -64 c 1
 576 -64 l 1
 576 -379 l 1
 555 -382 534 -384 512 -384 c 0
 406 -384 310 -342 240 -272 c 1
 331 -181 l 1
 363 -213 403 -236 448 -248 c 1
 448 -64 l 1
 133 -64 l 1
 130 -43 128 -22 128 0 c 0
 128 106 170 202 240 272 c 1
 331 181 l 1
 299 149 276 109 264 64 c 1
 448 64 l 1
 448 379 l 1
 469 382 490 384 512 384 c 0
 618 384 714 342 784 272 c 1
 693 181 l 1
 661 213 621 236 576 248 c 1
 576 64 l 1
 891 64 l 1
 894 43 896 22 896 0 c 0
 896 -106 854 -202 784 -272 c 0
 693 -181 l 0
EndSplineSet
Validated: 1
EndChar

StartChar: Yacute
Encoding: 221 221 93
Width: 1024
Flags: HW
LayerCount: 2
Fore
SplineSet
576 -64 m 5
 576 -256 l 5
 448 -256 l 5
 448 -64 l 5
 128 -64 l 5
 128 64 l 5
 448 64 l 5
 448 256 l 5
 576 256 l 5
 576 64 l 5
 896 64 l 5
 896 -64 l 5
 576 -64 l 5
EndSplineSet
Validated: 1
EndChar

StartChar: Thorn
Encoding: 222 222 94
Width: 1024
Flags: HW
LayerCount: 2
Fore
SplineSet
768 -64 m 5
 256 -64 l 5
 256 64 l 5
 768 64 l 5
 768 -64 l 5
448 384 m 5
 576 384 l 5
 576 256 l 5
 448 256 l 5
 448 384 l 5
448 -256 m 5
 576 -256 l 5
 576 -384 l 5
 448 -384 l 5
 448 -256 l 5
EndSplineSet
Validated: 1
EndChar

StartChar: germandbls
Encoding: 223 223 95
Width: 1024
Flags: HW
LayerCount: 2
Fore
SplineSet
576 256 m 5
 576 -256 l 5
 448 -256 l 5
 448 256 l 5
 576 256 l 5
128 -64 m 5
 128 64 l 5
 256 64 l 5
 256 -64 l 5
 128 -64 l 5
768 -64 m 5
 768 64 l 5
 896 64 l 5
 896 -64 l 5
 768 -64 l 5
EndSplineSet
Validated: 1
EndChar

StartChar: uni0090
Encoding: 144 144 96
Width: 1024
VWidth: 1689
Flags: HW
LayerCount: 2
Fore
SplineSet
128 -256 m 1
 768 -256 l 1
 768 0 l 2
 768 71 743 131 693 181 c 128
 643 231 583 256 512 256 c 2
 448 256 l 1
 448 384 l 1
 512 384 l 2
 618 384 709 347 784 272 c 128
 859 197 896 106 896 0 c 2
 896 -384 l 1
 128 -384 l 1
 128 -256 l 1
EndSplineSet
Validated: 1
EndChar

StartChar: uni0091
Encoding: 145 145 97
Width: 1024
VWidth: 1689
Flags: HW
LayerCount: 2
Fore
SplineSet
768 -384 m 1
 768 256 l 1
 512 256 l 2
 441 256 381 231 331 181 c 128
 281 131 256 71 256 0 c 2
 256 -64 l 1
 128 -64 l 1
 128 0 l 2
 128 106 165 197 240 272 c 128
 315 347 406 384 512 384 c 2
 896 384 l 1
 896 -384 l 1
 768 -384 l 1
EndSplineSet
Validated: 1
EndChar

StartChar: uni0092
Encoding: 146 146 98
Width: 1024
VWidth: 1689
Flags: HW
LayerCount: 2
Fore
SplineSet
896 256 m 1
 256 256 l 1
 256 0 l 2
 256 -71 281 -131 331 -181 c 128
 381 -231 441 -256 512 -256 c 2
 576 -256 l 1
 576 -384 l 1
 512 -384 l 2
 406 -384 315 -347 240 -272 c 128
 165 -197 128 -106 128 0 c 2
 128 384 l 1
 896 384 l 1
 896 256 l 1
EndSplineSet
Validated: 1
EndChar

StartChar: uni0093
Encoding: 147 147 99
Width: 1024
VWidth: 1689
Flags: HW
LayerCount: 2
Fore
SplineSet
256 384 m 1
 256 -256 l 1
 512 -256 l 2
 583 -256 643 -231 693 -181 c 128
 743 -131 768 -71 768 0 c 2
 768 64 l 1
 896 64 l 1
 896 0 l 2
 896 -106 859 -197 784 -272 c 128
 709 -347 618 -384 512 -384 c 2
 128 -384 l 1
 128 384 l 1
 256 384 l 1
EndSplineSet
Validated: 1
EndChar

StartChar: uni0094
Encoding: 148 148 100
Width: 1024
VWidth: 1689
Flags: HW
LayerCount: 2
Fore
SplineSet
128 -384 m 1
 128 384 l 5
 256 384 l 5
 256 -256 l 1
 768 -256 l 1
 768 0 l 2
 768 71 743 131 693 181 c 128
 643 231 583 256 512 256 c 2
 448 256 l 1
 448 384 l 1
 512 384 l 2
 618 384 709 347 784 272 c 128
 859 197 896 106 896 0 c 2
 896 -384 l 1
 128 -384 l 1
EndSplineSet
Validated: 1
EndChar

StartChar: uni0095
Encoding: 149 149 101
Width: 1024
VWidth: 1689
Flags: HW
LayerCount: 2
Fore
SplineSet
896 -384 m 1
 128 -384 l 5
 128 -256 l 5
 768 -256 l 1
 768 256 l 1
 512 256 l 2
 441 256 381 231 331 181 c 128
 281 131 256 71 256 0 c 2
 256 -64 l 1
 128 -64 l 1
 128 0 l 2
 128 106 165 197 240 272 c 128
 315 347 406 384 512 384 c 2
 896 384 l 1
 896 -384 l 1
EndSplineSet
Validated: 1
EndChar

StartChar: uni0096
Encoding: 150 150 102
Width: 1024
VWidth: 1689
Flags: HW
LayerCount: 2
Fore
SplineSet
896 384 m 1
 896 -384 l 5
 768 -384 l 5
 768 256 l 1
 256 256 l 1
 256 0 l 2
 256 -71 281 -131 331 -181 c 128
 381 -231 441 -256 512 -256 c 2
 576 -256 l 1
 576 -384 l 1
 512 -384 l 2
 406 -384 315 -347 240 -272 c 128
 165 -197 128 -106 128 0 c 2
 128 384 l 1
 896 384 l 1
EndSplineSet
Validated: 1
EndChar

StartChar: uni0098
Encoding: 152 152 103
Width: 1024
VWidth: 1689
Flags: HW
LayerCount: 2
Fore
SplineSet
128 -256 m 5
 512 -256 l 6
 583 -256 643 -231 693 -181 c 4
 743 -131 768 -71 768 -0 c 4
 768 71 743 131 693 181 c 4
 643 231 583 256 512 256 c 6
 128 256 l 5
 128 384 l 5
 512 384 l 6
 617 384 709 347 784 272 c 4
 859 197 896 106 896 -0 c 4
 896 -106 859 -197 784 -272 c 4
 709 -347 618 -384 512 -384 c 6
 128 -384 l 5
 128 -256 l 5
EndSplineSet
Validated: 1
EndChar

StartChar: uni0099
Encoding: 153 153 104
Width: 1024
VWidth: 1689
Flags: HW
LayerCount: 2
Fore
SplineSet
768 -384 m 5
 768 0 l 6
 768 71 743 131 693 181 c 4
 643 231 583 256 512 256 c 4
 441 256 381 231 331 181 c 4
 281 131 256 71 256 0 c 6
 256 -384 l 5
 128 -384 l 5
 128 0 l 6
 128 105 165 197 240 272 c 4
 315 347 406 384 512 384 c 4
 618 384 709 347 784 272 c 4
 859 197 896 106 896 0 c 6
 896 -384 l 5
 768 -384 l 5
EndSplineSet
Validated: 1
EndChar

StartChar: uni009A
Encoding: 154 154 105
Width: 1024
VWidth: 1689
Flags: HW
LayerCount: 2
Fore
SplineSet
896 256 m 5
 512 256 l 6
 441 256 381 231 331 181 c 4
 281 131 256 71 256 0 c 4
 256 -71 281 -131 331 -181 c 4
 381 -231 441 -256 512 -256 c 6
 896 -256 l 5
 896 -384 l 5
 512 -384 l 6
 407 -384 315 -347 240 -272 c 4
 165 -197 128 -106 128 0 c 4
 128 106 165 197 240 272 c 4
 315 347 406 384 512 384 c 6
 896 384 l 5
 896 256 l 5
EndSplineSet
Validated: 1
EndChar

StartChar: uni009B
Encoding: 155 155 106
Width: 1024
VWidth: 1689
Flags: HW
LayerCount: 2
Fore
SplineSet
256 384 m 5
 256 0 l 6
 256 -71 281 -131 331 -181 c 4
 381 -231 441 -256 512 -256 c 4
 583 -256 643 -231 693 -181 c 4
 743 -131 768 -71 768 0 c 6
 768 384 l 5
 896 384 l 5
 896 0 l 6
 896 -105 859 -197 784 -272 c 4
 709 -347 618 -384 512 -384 c 4
 406 -384 315 -347 240 -272 c 4
 165 -197 128 -106 128 0 c 6
 128 384 l 5
 256 384 l 5
EndSplineSet
Validated: 1
EndChar

StartChar: uni009C
Encoding: 156 156 107
Width: 1024
VWidth: 1689
Flags: HW
LayerCount: 2
Fore
SplineSet
448 -256 m 5
 448 256 l 5
 128 256 l 5
 128 384 l 5
 512 384 l 6
 617 384 709 347 784 272 c 4
 859 197 896 106 896 -0 c 4
 896 -106 859 -197 784 -272 c 4
 709 -347 618 -384 512 -384 c 6
 128 -384 l 5
 128 -256 l 5
 448 -256 l 5
576 -249 m 5
 663 -228 768 -142 768 -0 c 4
 768 142 663 228 576 249 c 5
 576 -249 l 5
EndSplineSet
Validated: 1
EndChar

StartChar: uni009D
Encoding: 157 157 108
Width: 1024
VWidth: 1689
Flags: HW
LayerCount: 2
Fore
SplineSet
768 -64 m 5
 256 -64 l 5
 256 -384 l 5
 128 -384 l 5
 128 0 l 6
 128 105 165 197 240 272 c 4
 315 347 406 384 512 384 c 4
 618 384 709 347 784 272 c 4
 859 197 896 106 896 0 c 6
 896 -384 l 5
 768 -384 l 5
 768 -64 l 5
761 64 m 5
 740 151 654 256 512 256 c 4
 370 256 284 151 263 64 c 5
 761 64 l 5
EndSplineSet
Validated: 1
EndChar

StartChar: uni009E
Encoding: 158 158 109
Width: 1024
VWidth: 1689
Flags: HW
LayerCount: 2
Fore
SplineSet
576 256 m 5
 576 -256 l 5
 896 -256 l 5
 896 -384 l 5
 512 -384 l 6
 407 -384 315 -347 240 -272 c 4
 165 -197 128 -106 128 0 c 4
 128 106 165 197 240 272 c 4
 315 347 406 384 512 384 c 6
 896 384 l 5
 896 256 l 5
 576 256 l 5
448 249 m 5
 361 228 256 142 256 0 c 4
 256 -142 361 -228 448 -249 c 5
 448 249 l 5
EndSplineSet
Validated: 1
EndChar

StartChar: uni009F
Encoding: 159 159 110
Width: 1024
VWidth: 1689
Flags: HW
LayerCount: 2
Fore
SplineSet
256 64 m 5
 768 64 l 5
 768 384 l 5
 896 384 l 5
 896 0 l 6
 896 -105 859 -197 784 -272 c 4
 709 -347 618 -384 512 -384 c 4
 406 -384 315 -347 240 -272 c 4
 165 -197 128 -106 128 0 c 6
 128 384 l 5
 256 384 l 5
 256 64 l 5
263 -64 m 5
 284 -151 370 -256 512 -256 c 4
 654 -256 740 -151 761 -64 c 5
 263 -64 l 5
EndSplineSet
Validated: 1
EndChar

StartChar: exclamdown
Encoding: 161 161 111
Width: 1024
VWidth: 1689
Flags: HW
LayerCount: 2
Fore
SplineSet
768 -384 m 1
 768 256 l 1
 512 256 l 2
 368 256 284 148 263 64 c 1
 576 64 l 1
 576 -64 l 1
 128 -64 l 1
 128 0 l 2
 128 106 165 197 240 272 c 0
 315 347 406 384 512 384 c 2
 896 384 l 1
 896 -384 l 1
 768 -384 l 1
EndSplineSet
Validated: 1
EndChar

StartChar: cent
Encoding: 162 162 112
Width: 1024
VWidth: 1689
Flags: HW
LayerCount: 2
Fore
SplineSet
896 256 m 1
 256 256 l 1
 256 0 l 2
 256 -144 364 -228 448 -249 c 1
 448 64 l 1
 576 64 l 1
 576 -384 l 1
 512 -384 l 2
 406 -384 315 -347 240 -272 c 0
 165 -197 128 -106 128 0 c 2
 128 384 l 1
 896 384 l 1
 896 256 l 1
EndSplineSet
Validated: 1
EndChar

StartChar: sterling
Encoding: 163 163 113
Width: 1024
VWidth: 1689
Flags: HW
LayerCount: 2
Fore
SplineSet
256 384 m 1
 256 -256 l 1
 512 -256 l 2
 656 -256 740 -148 761 -64 c 1
 448 -64 l 1
 448 64 l 1
 896 64 l 1
 896 0 l 2
 896 -106 859 -197 784 -272 c 0
 709 -347 618 -384 512 -384 c 2
 128 -384 l 1
 128 384 l 1
 256 384 l 1
EndSplineSet
Validated: 1
EndChar

StartChar: currency
Encoding: 164 164 114
Width: 1024
VWidth: 1689
Flags: HW
LayerCount: 2
Fore
SplineSet
128 -384 m 1
 128 384 l 5
 256 384 l 5
 256 -256 l 1
 768 -256 l 1
 768 0 l 2
 768 144 660 228 576 249 c 1
 576 -64 l 1
 448 -64 l 1
 448 384 l 1
 512 384 l 2
 618 384 709 347 784 272 c 0
 859 197 896 106 896 0 c 2
 896 -384 l 1
 128 -384 l 1
EndSplineSet
Validated: 1
EndChar

StartChar: yen
Encoding: 165 165 115
Width: 1024
VWidth: 1689
Flags: HW
LayerCount: 2
Fore
SplineSet
896 -384 m 1
 128 -384 l 5
 128 -256 l 5
 768 -256 l 1
 768 256 l 1
 512 256 l 2
 368 256 284 148 263 64 c 1
 576 64 l 1
 576 -64 l 1
 128 -64 l 1
 128 0 l 2
 128 106 165 197 240 272 c 0
 315 347 406 384 512 384 c 2
 896 384 l 1
 896 -384 l 1
EndSplineSet
Validated: 1
EndChar

StartChar: brokenbar
Encoding: 166 166 116
Width: 1024
VWidth: 1689
Flags: HW
LayerCount: 2
Fore
SplineSet
896 384 m 1
 896 -384 l 5
 768 -384 l 5
 768 256 l 1
 256 256 l 1
 256 0 l 2
 256 -144 364 -228 448 -249 c 1
 448 64 l 1
 576 64 l 1
 576 -384 l 1
 512 -384 l 2
 406 -384 315 -347 240 -272 c 0
 165 -197 128 -106 128 0 c 2
 128 384 l 1
 896 384 l 1
EndSplineSet
Validated: 1
EndChar

StartChar: section
Encoding: 167 167 117
Width: 1024
VWidth: 1689
Flags: HW
LayerCount: 2
Fore
SplineSet
128 384 m 1
 896 384 l 5
 896 256 l 5
 256 256 l 1
 256 -256 l 1
 512 -256 l 2
 656 -256 740 -148 761 -64 c 1
 448 -64 l 1
 448 64 l 1
 896 64 l 1
 896 0 l 2
 896 -106 859 -197 784 -272 c 0
 709 -347 618 -384 512 -384 c 2
 128 -384 l 1
 128 384 l 1
EndSplineSet
Validated: 1
EndChar

StartChar: dieresis
Encoding: 168 168 118
Width: 1024
VWidth: 1689
Flags: HW
LayerCount: 2
Fore
SplineSet
128 384 m 5
 256 384 l 5
 256 -256 l 5
 512 -256 l 6
 583 -256 643 -231 693 -181 c 4
 743 -131 768 -71 768 -0 c 4
 768 71 743 131 693 181 c 4
 643 231 583 256 512 256 c 6
 448 256 l 5
 448 384 l 5
 512 384 l 6
 618 384 709 347 784 272 c 4
 859 197 896 106 896 -0 c 4
 896 -106 859 -197 784 -272 c 4
 709 -347 618 -384 512 -384 c 6
 128 -384 l 5
 128 384 l 5
EndSplineSet
Validated: 1
EndChar

StartChar: copyright
Encoding: 169 169 119
Width: 1024
VWidth: 1689
Flags: HW
LayerCount: 2
Fore
SplineSet
128 -384 m 5
 128 -256 l 5
 768 -256 l 5
 768 0 l 6
 768 71 743 131 693 181 c 4
 643 231 583 256 512 256 c 4
 441 256 381 231 331 181 c 4
 281 131 256 71 256 0 c 6
 256 -64 l 5
 128 -64 l 5
 128 0 l 6
 128 106 165 197 240 272 c 4
 315 347 406 384 512 384 c 4
 618 384 709 347 784 272 c 4
 859 197 896 106 896 0 c 6
 896 -384 l 5
 128 -384 l 5
EndSplineSet
Validated: 1
EndChar

StartChar: ordfeminine
Encoding: 170 170 120
Width: 1024
VWidth: 1689
Flags: HW
LayerCount: 2
Fore
SplineSet
896 -384 m 5
 768 -384 l 5
 768 256 l 5
 512 256 l 6
 441 256 381 231 331 181 c 4
 281 131 256 71 256 0 c 4
 256 -71 281 -131 331 -181 c 4
 381 -231 441 -256 512 -256 c 6
 576 -256 l 5
 576 -384 l 5
 512 -384 l 6
 406 -384 315 -347 240 -272 c 4
 165 -197 128 -106 128 0 c 4
 128 106 165 197 240 272 c 4
 315 347 406 384 512 384 c 6
 896 384 l 5
 896 -384 l 5
EndSplineSet
Validated: 1
EndChar

StartChar: guillemotleft
Encoding: 171 171 121
Width: 1024
VWidth: 1689
Flags: HW
LayerCount: 2
Fore
SplineSet
896 384 m 5
 896 256 l 5
 256 256 l 5
 256 0 l 6
 256 -71 281 -131 331 -181 c 4
 381 -231 441 -256 512 -256 c 4
 583 -256 643 -231 693 -181 c 4
 743 -131 768 -71 768 0 c 6
 768 64 l 5
 896 64 l 5
 896 0 l 6
 896 -106 859 -197 784 -272 c 4
 709 -347 618 -384 512 -384 c 4
 406 -384 315 -347 240 -272 c 4
 165 -197 128 -106 128 0 c 6
 128 384 l 5
 896 384 l 5
EndSplineSet
Validated: 1
EndChar

StartChar: logicalnot
Encoding: 172 172 122
Width: 1024
VWidth: 1689
Flags: HW
LayerCount: 2
Fore
SplineSet
128 384 m 5
 256 384 l 5
 256 -256 l 5
 512 -256 l 6
 583 -256 643 -231 693 -181 c 4
 743 -131 768 -71 768 -0 c 4
 768 142 663 228 576 249 c 5
 576 -64 l 5
 448 -64 l 5
 448 384 l 5
 512 384 l 6
 618 384 709 347 784 272 c 4
 859 197 896 106 896 -0 c 4
 896 -106 859 -197 784 -272 c 4
 709 -347 618 -384 512 -384 c 6
 128 -384 l 5
 128 384 l 5
EndSplineSet
Validated: 1
EndChar

StartChar: uni00AD
Encoding: 173 173 123
Width: 1024
VWidth: 1689
Flags: HW
LayerCount: 2
Fore
SplineSet
128 -384 m 5
 128 -256 l 5
 768 -256 l 5
 768 0 l 6
 768 71 743 131 693 181 c 4
 643 231 583 256 512 256 c 4
 370 256 284 151 263 64 c 5
 576 64 l 5
 576 -64 l 5
 128 -64 l 5
 128 0 l 6
 128 106 165 197 240 272 c 4
 315 347 406 384 512 384 c 4
 618 384 709 347 784 272 c 4
 859 197 896 106 896 0 c 6
 896 -384 l 5
 128 -384 l 5
EndSplineSet
Validated: 1
EndChar

StartChar: registered
Encoding: 174 174 124
Width: 1024
VWidth: 1689
Flags: HW
LayerCount: 2
Fore
SplineSet
896 -384 m 5
 768 -384 l 5
 768 256 l 5
 512 256 l 6
 441 256 381 231 331 181 c 4
 281 131 256 71 256 0 c 4
 256 -142 361 -228 448 -249 c 5
 448 64 l 5
 576 64 l 5
 576 -384 l 5
 512 -384 l 6
 406 -384 315 -347 240 -272 c 4
 165 -197 128 -106 128 0 c 4
 128 106 165 197 240 272 c 4
 315 347 406 384 512 384 c 6
 896 384 l 5
 896 -384 l 5
EndSplineSet
Validated: 1
EndChar

StartChar: macron
Encoding: 175 175 125
Width: 1024
VWidth: 1689
Flags: HW
LayerCount: 2
Fore
SplineSet
896 384 m 5
 896 256 l 5
 256 256 l 5
 256 0 l 6
 256 -71 281 -131 331 -181 c 4
 381 -231 441 -256 512 -256 c 4
 654 -256 740 -151 761 -64 c 5
 448 -64 l 5
 448 64 l 5
 896 64 l 5
 896 0 l 6
 896 -106 859 -197 784 -272 c 4
 709 -347 618 -384 512 -384 c 4
 406 -384 315 -347 240 -272 c 4
 165 -197 128 -106 128 0 c 6
 128 384 l 5
 896 384 l 5
EndSplineSet
Validated: 1
EndChar

StartChar: onequarter
Encoding: 188 188 126
Width: 1024
Flags: HW
LayerCount: 2
Fore
SplineSet
896 -384 m 5
 768 -384 l 5
 768 -117 l 5
 128 -384 l 5
 128 -256 l 5
 768 0 l 5
 128 256 l 5
 128 384 l 5
 768 117 l 5
 768 384 l 5
 896 384 l 5
 896 -384 l 5
EndSplineSet
Validated: 1
EndChar

StartChar: onehalf
Encoding: 189 189 127
Width: 1024
Flags: HW
LayerCount: 2
Fore
SplineSet
896 384 m 5
 896 256 l 5
 629 256 l 5
 896 -384 l 5
 768 -384 l 5
 512 256 l 5
 256 -384 l 5
 128 -384 l 5
 395 256 l 5
 128 256 l 5
 128 384 l 5
 896 384 l 5
EndSplineSet
Validated: 1
EndChar

StartChar: threequarters
Encoding: 190 190 128
Width: 1024
Flags: HW
LayerCount: 2
Fore
SplineSet
128 384 m 5
 256 384 l 5
 256 117 l 5
 896 384 l 5
 896 256 l 5
 256 0 l 5
 896 -256 l 5
 896 -384 l 5
 256 -117 l 5
 256 -384 l 5
 128 -384 l 5
 128 384 l 5
EndSplineSet
Validated: 1
EndChar

StartChar: questiondown
Encoding: 191 191 129
Width: 1024
Flags: HW
LayerCount: 2
Fore
SplineSet
128 -384 m 5
 128 -256 l 5
 395 -256 l 5
 128 384 l 5
 256 384 l 5
 512 -256 l 5
 768 384 l 5
 896 384 l 5
 629 -256 l 5
 896 -256 l 5
 896 -384 l 5
 128 -384 l 5
EndSplineSet
Validated: 1
EndChar

StartChar: hyphen
Encoding: 45 45 130
Width: 1024
Flags: HW
LayerCount: 2
Fore
SplineSet
768 -64 m 1
 256 -64 l 1
 256 64 l 1
 768 64 l 1
 768 -64 l 1
EndSplineSet
EndChar

StartChar: plus
Encoding: 43 43 131
Width: 1024
Flags: HW
LayerCount: 2
Fore
SplineSet
448 -64 m 1
 256 -64 l 1
 256 64 l 1
 448 64 l 1
 448 256 l 5
 576 256 l 5
 576 64 l 1
 768 64 l 1
 768 -64 l 1
 576 -64 l 1
 576 -256 l 1
 448 -256 l 1
 448 -64 l 1
EndSplineSet
EndChar

StartChar: asterisk
Encoding: 42 42 132
Width: 1024
Flags: HW
LayerCount: 2
Fore
SplineSet
576 256 m 1
 576 -256 l 1
 448 -256 l 1
 448 256 l 1
 576 256 l 1
256 -64 m 1
 256 64 l 1
 384 64 l 1
 384 -64 l 1
 256 -64 l 1
640 -64 m 5
 640 64 l 5
 768 64 l 5
 768 -64 l 5
 640 -64 l 5
EndSplineSet
EndChar

StartChar: slash
Encoding: 47 47 133
Width: 1024
Flags: HW
LayerCount: 2
Fore
SplineSet
768 -64 m 1
 256 -64 l 1
 256 64 l 1
 768 64 l 1
 768 -64 l 1
448 256 m 1
 576 256 l 1
 576 128 l 1
 448 128 l 1
 448 256 l 1
448 -128 m 1
 576 -128 l 1
 576 -256 l 1
 448 -256 l 1
 448 -128 l 1
EndSplineSet
EndChar

StartChar: equal
Encoding: 61 61 134
Width: 1024
Flags: HW
LayerCount: 2
Fore
SplineSet
768 -192 m 5
 256 -192 l 5
 256 -64 l 5
 768 -64 l 5
 768 -192 l 5
768 64 m 5
 256 64 l 5
 256 192 l 5
 768 192 l 5
 768 64 l 5
EndSplineSet
Validated: 1
EndChar

StartChar: uni001A
Encoding: 26 26 135
Width: 1024
Flags: HW
LayerCount: 2
Fore
SplineSet
448 -64 m 1
 133 -64 l 1
 130 -43 128 -22 128 0 c 0
 128 106 170 202 240 272 c 1
 331 181 l 1
 299 149 276 109 264 64 c 1
 448 64 l 1
 448 379 l 1
 469 382 490 384 512 384 c 0
 618 384 714 342 784 272 c 1
 693 181 l 1
 661 213 621 236 576 248 c 1
 576 64 l 1
 896 64 l 5
 896 -64 l 5
 576 -64 l 1
 576 -379 l 1
 555 -382 534 -384 512 -384 c 0
 406 -384 310 -342 240 -272 c 1
 331 -181 l 1
 363 -213 403 -236 448 -248 c 1
 448 -64 l 1
EndSplineSet
Validated: 1
EndChar

StartChar: uni0011
Encoding: 17 17 136
Width: 1024
Flags: HW
LayerCount: 2
Fore
SplineSet
576 -64 m 1
 576 -384 l 1
 448 -384 l 1
 448 248 l 1
 403 236 363 213 331 181 c 1
 240 272 l 1
 310 342 406 384 512 384 c 0
 534 384 555 382 576 379 c 1
 576 64 l 1
 896 64 l 5
 896 -64 l 5
 576 -64 l 1
EndSplineSet
Validated: 1
EndChar

StartChar: uni0012
Encoding: 18 18 137
Width: 1024
Flags: HW
LayerCount: 2
Fore
SplineSet
576 64 m 1
 896 64 l 5
 896 -64 l 5
 576 -64 l 1
 576 -384 l 1
 448 -384 l 1
 448 379 l 1
 469 382 490 384 512 384 c 0
 618 384 714 342 784 272 c 1
 693 181 l 1
 661 213 621 236 576 248 c 1
 576 64 l 1
EndSplineSet
Validated: 1
EndChar

StartChar: uni0013
Encoding: 19 19 138
Width: 1024
Flags: HW
LayerCount: 2
Fore
SplineSet
576 -379 m 1
 555 -382 534 -384 512 -384 c 0
 406 -384 310 -342 240 -272 c 1
 331 -181 l 1
 363 -213 403 -236 448 -248 c 1
 448 -64 l 1
 128 -64 l 5
 128 64 l 5
 448 64 l 1
 448 384 l 25
 576 384 l 25
 576 -379 l 1
EndSplineSet
Validated: 1
EndChar

StartChar: uni0014
Encoding: 20 20 139
Width: 1024
Flags: HW
LayerCount: 2
Fore
SplineSet
448 64 m 1
 448 384 l 25
 576 384 l 25
 576 -248 l 17
 621 -236 661 -213 693 -181 c 1
 784 -272 l 1
 714 -342 618 -384 512 -384 c 0
 490 -384 469 -382 448 -379 c 1
 448 -64 l 1
 128 -64 l 5
 128 64 l 5
 448 64 l 1
EndSplineSet
Validated: 1
EndChar

StartChar: uni0015
Encoding: 21 21 140
Width: 1024
Flags: HW
LayerCount: 2
Fore
SplineSet
448 248 m 1
 403 236 363 213 331 181 c 1
 240 272 l 1
 310 342 406 384 512 384 c 0
 534 384 555 382 576 379 c 1
 576 64 l 1
 896 64 l 5
 896 -64 l 5
 576 -64 l 1
 576 -248 l 1
 621 -236 661 -213 693 -181 c 1
 784 -272 l 1
 714 -342 618 -384 512 -384 c 0
 490 -384 469 -382 448 -379 c 1
 448 248 l 1
EndSplineSet
Validated: 1
EndChar

StartChar: uni0016
Encoding: 22 22 141
Width: 1024
Flags: HW
LayerCount: 2
Fore
SplineSet
448 -248 m 1
 448 379 l 1
 469 382 490 384 512 384 c 0
 618 384 714 342 784 272 c 1
 693 181 l 1
 661 213 621 236 576 248 c 1
 576 64 l 1
 896 64 l 5
 896 -64 l 5
 576 -64 l 1
 576 -379 l 1
 555 -382 534 -384 512 -384 c 0
 406 -384 310 -342 240 -272 c 1
 331 -181 l 1
 363 -213 403 -236 448 -248 c 1
EndSplineSet
Validated: 1
EndChar

StartChar: uni0017
Encoding: 23 23 142
Width: 1024
Flags: HW
LayerCount: 2
Fore
SplineSet
576 -248 m 1
 621 -236 661 -213 693 -181 c 1
 784 -272 l 1
 714 -342 618 -384 512 -384 c 0
 490 -384 469 -382 448 -379 c 1
 448 -64 l 1
 128 -64 l 1
 128 64 l 1
 448 64 l 1
 448 248 l 1
 403 236 363 213 331 181 c 1
 240 272 l 1
 310 342 406 384 512 384 c 0
 534 384 555 382 576 379 c 1
 576 -248 l 1
EndSplineSet
Validated: 1
EndChar

StartChar: uni0018
Encoding: 24 24 143
Width: 1024
Flags: HW
LayerCount: 2
Fore
SplineSet
576 248 m 1
 576 -379 l 1
 555 -382 534 -384 512 -384 c 0
 406 -384 310 -342 240 -272 c 1
 331 -181 l 1
 363 -213 403 -236 448 -248 c 1
 448 -64 l 1
 128 -64 l 5
 128 64 l 5
 448 64 l 1
 448 379 l 1
 469 382 490 384 512 384 c 0
 618 384 714 342 784 272 c 1
 693 181 l 1
 661 213 621 236 576 248 c 1
EndSplineSet
Validated: 1
EndChar

StartChar: uni0019
Encoding: 25 25 144
Width: 1024
Flags: HW
LayerCount: 2
Fore
SplineSet
576 -64 m 1
 576 -248 l 1
 621 -236 661 -213 693 -181 c 1
 784 -272 l 1
 714 -342 618 -384 512 -384 c 0
 490 -384 469 -382 448 -379 c 1
 448 -64 l 1
 128 -64 l 5
 128 64 l 5
 448 64 l 1
 448 248 l 1
 403 236 363 213 331 181 c 1
 240 272 l 1
 310 342 406 384 512 384 c 0
 534 384 555 382 576 379 c 1
 576 64 l 1
 760 64 l 1
 748 109 725 149 693 181 c 1
 784 272 l 1
 854 202 896 106 896 0 c 0
 896 -22 894 -43 891 -64 c 1
 576 -64 l 1
EndSplineSet
Validated: 1
EndChar

StartChar: uni001B
Encoding: 27 27 145
Width: 1024
Flags: HW
LayerCount: 2
Fore
SplineSet
331 -181 m 5
 240 -272 l 5
 170 -202 128 -106 128 0 c 4
 128 22 130 43 133 64 c 5
 448 64 l 5
 448 248 l 5
 403 236 363 213 331 181 c 5
 240 272 l 5
 310 342 406 384 512 384 c 4
 534 384 555 382 576 379 c 5
 576 64 l 5
 760 64 l 5
 748 109 725 149 693 181 c 5
 784 272 l 5
 854 202 896 106 896 0 c 4
 896 -22 894 -43 891 -64 c 5
 576 -64 l 5
 576 -248 l 5
 621 -236 661 -213 693 -181 c 5
 784 -272 l 5
 714 -342 618 -384 512 -384 c 4
 490 -384 469 -382 448 -379 c 5
 448 -64 l 5
 264 -64 l 5
 276 -109 299 -149 331 -181 c 5
EndSplineSet
Validated: 1
EndChar

StartChar: uni0001
Encoding: 1 1 146
Width: 1024
Flags: HW
LayerCount: 2
Fore
SplineSet
576 -64 m 1
 576 -384 l 1
 448 -384 l 1
 448 248 l 1
 403 236 363 213 331 181 c 1
 240 272 l 1
 310 342 406 384 512 384 c 0
 534 384 555 382 576 379 c 1
 576 64 l 1
 768 64 l 1
 768 -64 l 1
 576 -64 l 1
EndSplineSet
Validated: 1
EndChar

StartChar: uni0002
Encoding: 2 2 147
Width: 1024
Flags: HW
LayerCount: 2
Fore
SplineSet
576 64 m 1
 768 64 l 1
 768 -64 l 1
 576 -64 l 1
 576 -384 l 1
 448 -384 l 1
 448 379 l 1
 469 382 490 384 512 384 c 0
 618 384 714 342 784 272 c 1
 693 181 l 1
 661 213 621 236 576 248 c 1
 576 64 l 1
EndSplineSet
Validated: 1
EndChar

StartChar: uni0003
Encoding: 3 3 148
Width: 1024
Flags: HW
LayerCount: 2
Fore
SplineSet
576 -379 m 5
 555 -382 534 -384 512 -384 c 0
 406 -384 310 -342 240 -272 c 1
 331 -181 l 1
 363 -213 403 -236 448 -248 c 1
 448 -64 l 1
 256 -64 l 1
 256 64 l 1
 448 64 l 9
 448 384 l 25
 576 384 l 25
 576 -379 l 5
EndSplineSet
Validated: 1
EndChar

StartChar: uni0004
Encoding: 4 4 149
Width: 1024
Flags: HW
LayerCount: 2
Fore
SplineSet
448 64 m 1
 448 384 l 25
 576 384 l 25
 576 -248 l 17
 621 -236 661 -213 693 -181 c 1
 784 -272 l 1
 714 -342 618 -384 512 -384 c 0
 490 -384 469 -382 448 -379 c 1
 448 -64 l 1
 256 -64 l 1
 256 64 l 1
 448 64 l 1
EndSplineSet
Validated: 1
EndChar

StartChar: uni0005
Encoding: 5 5 150
Width: 1024
Flags: HW
LayerCount: 2
Fore
SplineSet
448 248 m 1
 403 236 363 213 331 181 c 1
 240 272 l 1
 310 342 406 384 512 384 c 0
 534 384 555 382 576 379 c 1
 576 64 l 1
 768 64 l 1
 768 -64 l 1
 576 -64 l 1
 576 -248 l 1
 621 -236 661 -213 693 -181 c 1
 784 -272 l 1
 714 -342 618 -384 512 -384 c 0
 490 -384 469 -382 448 -379 c 1
 448 248 l 1
EndSplineSet
Validated: 1
EndChar

StartChar: uni0006
Encoding: 6 6 151
Width: 1024
Flags: HW
LayerCount: 2
Fore
SplineSet
448 -248 m 1
 448 379 l 1
 469 382 490 384 512 384 c 0
 618 384 714 342 784 272 c 1
 693 181 l 1
 661 213 621 236 576 248 c 1
 576 64 l 5
 768 64 l 5
 768 -64 l 5
 576 -64 l 5
 576 -379 l 1
 555 -382 534 -384 512 -384 c 0
 406 -384 310 -342 240 -272 c 1
 331 -181 l 1
 363 -213 403 -236 448 -248 c 1
EndSplineSet
Validated: 1
EndChar

StartChar: uni0007
Encoding: 7 7 152
Width: 1024
Flags: HW
LayerCount: 2
Fore
SplineSet
576 -248 m 1
 621 -236 661 -213 693 -181 c 1
 784 -272 l 1
 714 -342 618 -384 512 -384 c 0
 490 -384 469 -382 448 -379 c 1
 448 -64 l 1
 256 -64 l 1
 256 64 l 1
 448 64 l 1
 448 248 l 1
 403 236 363 213 331 181 c 1
 240 272 l 1
 310 342 406 384 512 384 c 0
 534 384 555 382 576 379 c 1
 576 -248 l 1
EndSplineSet
Validated: 1
EndChar

StartChar: uni0008
Encoding: 8 8 153
Width: 1024
Flags: HW
LayerCount: 2
Fore
SplineSet
576 248 m 5
 576 -379 l 5
 555 -382 534 -384 512 -384 c 4
 406 -384 310 -342 240 -272 c 5
 331 -181 l 5
 363 -213 403 -236 448 -248 c 5
 448 -64 l 5
 256 -64 l 5
 256 64 l 5
 448 64 l 5
 448 379 l 5
 469 382 490 384 512 384 c 4
 618 384 714 342 784 272 c 5
 693 181 l 5
 661 213 621 236 576 248 c 5
EndSplineSet
Validated: 1
EndChar

StartChar: uni0009
Encoding: 9 9 154
Width: 1024
Flags: HW
LayerCount: 2
Fore
SplineSet
576 -64 m 1
 576 -248 l 1
 621 -236 661 -213 693 -181 c 1
 784 -272 l 1
 714 -342 618 -384 512 -384 c 0
 490 -384 469 -382 448 -379 c 1
 448 -64 l 1
 256 -64 l 1
 256 64 l 1
 448 64 l 1
 448 248 l 1
 403 236 363 213 331 181 c 1
 240 272 l 1
 310 342 406 384 512 384 c 0
 534 384 555 382 576 379 c 1
 576 64 l 1
 760 64 l 1
 748 109 725 149 693 181 c 1
 784 272 l 1
 854 202 896 106 896 0 c 0
 896 -22 894 -43 891 -64 c 1
 576 -64 l 1
EndSplineSet
Validated: 1
EndChar

StartChar: uni000A
Encoding: 10 10 155
Width: 1024
Flags: HW
LayerCount: 2
Fore
SplineSet
448 -64 m 5
 133 -64 l 5
 130 -43 128 -22 128 0 c 4
 128 106 170 202 240 272 c 5
 331 181 l 5
 299 149 276 109 264 64 c 5
 448 64 l 5
 448 379 l 5
 469 382 490 384 512 384 c 4
 618 384 714 342 784 272 c 5
 693 181 l 5
 661 213 621 236 576 248 c 5
 576 64 l 5
 768 64 l 5
 768 -64 l 5
 576 -64 l 5
 576 -379 l 5
 555 -382 534 -384 512 -384 c 4
 406 -384 310 -342 240 -272 c 5
 331 -181 l 5
 363 -213 403 -236 448 -248 c 5
 448 -64 l 5
EndSplineSet
Validated: 1
EndChar

StartChar: uni000B
Encoding: 11 11 156
Width: 1024
Flags: HW
LayerCount: 2
Fore
SplineSet
331 -181 m 5
 240 -272 l 5
 170 -202 128 -106 128 0 c 4
 128 22 130 43 133 64 c 5
 448 64 l 5
 448 248 l 5
 403 236 363 213 331 181 c 5
 240 272 l 5
 310 342 406 384 512 384 c 4
 534 384 555 382 576 379 c 5
 576 64 l 5
 760 64 l 5
 748 109 725 149 693 181 c 5
 784 272 l 5
 854 202 896 106 896 0 c 4
 896 -22 894 -43 891 -64 c 5
 576 -64 l 5
 576 -248 l 5
 621 -236 661 -213 693 -181 c 5
 784 -272 l 5
 714 -342 618 -384 512 -384 c 4
 490 -384 469 -382 448 -379 c 5
 448 -64 l 5
 264 -64 l 5
 276 -109 299 -149 331 -181 c 5
EndSplineSet
Validated: 1
EndChar

StartChar: uni0000
Encoding: 0 0 157
Width: 1024
Flags: HW
LayerCount: 2
Fore
SplineSet
656 212 m 5
 615 240 566 256 512 256 c 4
 458 256 409 240 368 212 c 5
 368 -212 l 5
 409 -240 459 -256 512 -256 c 4
 565 -256 615 -240 656 -212 c 5
 656 212 l 5
784 -272 m 5
 714 -342 618 -384 512 -384 c 4
 406 -384 310 -341 241 -272 c 5
 241 -271 l 5
 240 -271 l 5
 240 272 l 5
 310 342 406 384 512 384 c 4
 618 384 714 341 784 271 c 5
 784 -272 l 5
EndSplineSet
Validated: 1
EndChar
